<svg width="600" height="400" viewBox="0 0 600 400" fill="none" xmlns="http://www.w3.org/2000/svg">
  <defs>
    <linearGradient id="bgGradient" x1="0%" y1="0%" x2="100%" y2="100%">
      <stop offset="0%" style="stop-color:#4f9cf9;stop-opacity:0.1" />
      <stop offset="100%" style="stop-color:#043873;stop-opacity:0.1" />
    </linearGradient>
    <linearGradient id="screenGrad" x1="0%" y1="0%" x2="100%" y2="100%">
      <stop offset="0%" style="stop-color:#ffffff" />
      <stop offset="100%" style="stop-color:#f8f9fa" />
    </linearGradient>
  </defs>
  
  <!-- Background -->
  <rect width="600" height="400" fill="url(#bgGradient)" rx="20"/>
  
  <!-- Central collaboration workspace -->
  <g transform="translate(150, 80)">
    <!-- Main screen/workspace -->
    <rect x="0" y="0" width="300" height="200" fill="url(#screenGrad)" rx="12" stroke="#dee2e6" stroke-width="2"/>
    
    <!-- Shared document -->
    <rect x="20" y="20" width="260" height="160" fill="#ffffff" rx="8" stroke="#e9ecef"/>
    
    <!-- Document content -->
    <rect x="40" y="40" width="220" height="12" fill="#4f9cf9" opacity="0.3" rx="6"/>
    <rect x="40" y="60" width="180" height="8" fill="#6c757d" opacity="0.4" rx="4"/>
    <rect x="40" y="75" width="200" height="8" fill="#6c757d" opacity="0.4" rx="4"/>
    <rect x="40" y="90" width="160" height="8" fill="#6c757d" opacity="0.4" rx="4"/>
    
    <!-- Collaborative editing indicators -->
    <rect x="40" y="110" width="120" height="20" fill="#FFE492" opacity="0.3" rx="4"/>
    <rect x="170" y="110" width="90" height="20" fill="#28a745" opacity="0.3" rx="4"/>
    
    <!-- Comments/annotations -->
    <circle cx="240" cy="70" r="6" fill="#ffc107"/>
    <rect x="250" y="65" width="20" height="10" fill="#ffc107" opacity="0.8" rx="2"/>
    
    <circle cx="220" cy="120" r="6" fill="#dc3545"/>
    <rect x="230" y="115" width="25" height="10" fill="#dc3545" opacity="0.8" rx="2"/>
  </g>
  
  <!-- Team members around the workspace -->
  <!-- Person 1 - Top left -->
  <g transform="translate(80, 50)">
    <circle cx="20" cy="20" r="15" fill="#4f9cf9"/>
    <circle cx="20" cy="15" r="8" fill="#ffffff"/>
    <path d="M10 30 Q20 25 30 30" fill="#ffffff"/>
    <!-- Connection line -->
    <line x1="35" y1="20" x2="70" y2="40" stroke="#4f9cf9" stroke-width="2" stroke-dasharray="5,5" opacity="0.6"/>
  </g>
  
  <!-- Person 2 - Top right -->
  <g transform="translate(480, 60)">
    <circle cx="20" cy="20" r="15" fill="#28a745"/>
    <circle cx="20" cy="15" r="8" fill="#ffffff"/>
    <path d="M10 30 Q20 25 30 30" fill="#ffffff"/>
    <!-- Connection line -->
    <line x1="5" y1="20" x2="-30" y2="40" stroke="#28a745" stroke-width="2" stroke-dasharray="5,5" opacity="0.6"/>
  </g>
  
  <!-- Person 3 - Bottom left -->
  <g transform="translate(60, 300)">
    <circle cx="20" cy="20" r="15" fill="#ffc107"/>
    <circle cx="20" cy="15" r="8" fill="#ffffff"/>
    <path d="M10 30 Q20 25 30 30" fill="#ffffff"/>
    <!-- Connection line -->
    <line x1="35" y1="10" x2="90" y2="-20" stroke="#ffc107" stroke-width="2" stroke-dasharray="5,5" opacity="0.6"/>
  </g>
  
  <!-- Person 4 - Bottom right -->
  <g transform="translate(500, 320)">
    <circle cx="20" cy="20" r="15" fill="#dc3545"/>
    <circle cx="20" cy="15" r="8" fill="#ffffff"/>
    <path d="M10 30 Q20 25 30 30" fill="#ffffff"/>
    <!-- Connection line -->
    <line x1="5" y1="5" x2="-50" y2="-40" stroke="#dc3545" stroke-width="2" stroke-dasharray="5,5" opacity="0.6"/>
  </g>
  
  <!-- Collaboration tools -->
  <g transform="translate(50, 150)">
    <!-- Chat bubble -->
    <rect x="0" y="0" width="60" height="40" fill="#ffffff" rx="8" stroke="#dee2e6"/>
    <circle cx="15" cy="15" r="3" fill="#4f9cf9"/>
    <circle cx="25" cy="15" r="3" fill="#4f9cf9"/>
    <circle cx="35" cy="15" r="3" fill="#4f9cf9"/>
    <rect x="10" y="25" width="40" height="3" fill="#6c757d" opacity="0.5" rx="1"/>
    <polygon points="20,40 25,45 30,40" fill="#ffffff" stroke="#dee2e6"/>
  </g>
  
  <g transform="translate(520, 180)">
    <!-- Video call icon -->
    <rect x="0" y="0" width="50" height="35" fill="#ffffff" rx="6" stroke="#dee2e6"/>
    <rect x="5" y="5" width="40" height="25" fill="#4f9cf9" opacity="0.2" rx="4"/>
    <circle cx="25" cy="17" r="6" fill="#4f9cf9"/>
    <circle cx="25" cy="14" r="3" fill="#ffffff"/>
    <path d="M18 22 Q25 20 32 22" fill="#ffffff"/>
  </g>
  
  <!-- Real-time sync indicators -->
  <g transform="translate(300, 50)">
    <circle cx="0" cy="0" r="8" fill="#28a745">
      <animate attributeName="opacity" values="0.3;1;0.3" dur="2s" repeatCount="indefinite"/>
    </circle>
    <circle cx="0" cy="0" r="12" fill="none" stroke="#28a745" stroke-width="2" opacity="0.5">
      <animate attributeName="r" values="8;16;8" dur="2s" repeatCount="indefinite"/>
      <animate attributeName="opacity" values="0.5;0;0.5" dur="2s" repeatCount="indefinite"/>
    </circle>
  </g>
  
  <!-- Shared files -->
  <g transform="translate(100, 250)">
    <rect x="0" y="0" width="30" height="35" fill="#ffffff" rx="4" stroke="#dee2e6"/>
    <rect x="0" y="0" width="30" height="8" fill="#4f9cf9" rx="4"/>
    <rect x="5" y="15" width="20" height="3" fill="#6c757d" opacity="0.5" rx="1"/>
    <rect x="5" y="22" width="15" height="3" fill="#6c757d" opacity="0.5" rx="1"/>
    
    <rect x="40" y="0" width="30" height="35" fill="#ffffff" rx="4" stroke="#dee2e6"/>
    <rect x="40" y="0" width="30" height="8" fill="#28a745" rx="4"/>
    <rect x="45" y="15" width="20" height="3" fill="#6c757d" opacity="0.5" rx="1"/>
    <rect x="45" y="22" width="18" height="3" fill="#6c757d" opacity="0.5" rx="1"/>
  </g>
  
  <!-- Floating collaboration elements -->
  <circle cx="450" cy="120" r="20" fill="#FFE492" opacity="0.3"/>
  <rect x="120" y="320" width="25" height="25" fill="#4f9cf9" opacity="0.2" rx="6"/>
  <polygon points="480,300 500,280 520,300 500,320" fill="#28a745" opacity="0.3"/>
  
  <!-- Success indicators -->
  <g transform="translate(400, 300)">
    <circle cx="15" cy="15" r="12" fill="#28a745" opacity="0.8"/>
    <path d="M10 15 L13 18 L20 11" stroke="#ffffff" stroke-width="2" fill="none" stroke-linecap="round"/>
  </g>
</svg>
