<svg width="600" height="400" viewBox="0 0 600 400" fill="none" xmlns="http://www.w3.org/2000/svg">
  <!-- Background gradient -->
  <defs>
    <linearGradient id="bgGradient" x1="0%" y1="0%" x2="100%" y2="100%">
      <stop offset="0%" style="stop-color:#4f9cf9;stop-opacity:0.1" />
      <stop offset="100%" style="stop-color:#043873;stop-opacity:0.1" />
    </linearGradient>
    <linearGradient id="laptopGradient" x1="0%" y1="0%" x2="100%" y2="100%">
      <stop offset="0%" style="stop-color:#f8f9fa" />
      <stop offset="100%" style="stop-color:#e9ecef" />
    </linearGradient>
    <linearGradient id="screenGradient" x1="0%" y1="0%" x2="100%" y2="100%">
      <stop offset="0%" style="stop-color:#043873" />
      <stop offset="100%" style="stop-color:#4f9cf9" />
    </linearGradient>
  </defs>
  
  <!-- Background -->
  <rect width="600" height="400" fill="url(#bgGradient)" rx="20"/>
  
  <!-- Floating elements -->
  <circle cx="100" cy="80" r="30" fill="#4f9cf9" opacity="0.2"/>
  <circle cx="520" cy="320" r="25" fill="#FFE492" opacity="0.3"/>
  <rect x="480" y="60" width="40" height="40" fill="#4f9cf9" opacity="0.2" rx="8"/>
  
  <!-- Main laptop illustration -->
  <g transform="translate(150, 100)">
    <!-- Laptop base -->
    <rect x="0" y="120" width="300" height="20" fill="url(#laptopGradient)" rx="10"/>
    <rect x="10" y="100" width="280" height="25" fill="#dee2e6" rx="5"/>
    
    <!-- Laptop screen -->
    <rect x="20" y="20" width="260" height="160" fill="url(#laptopGradient)" rx="8"/>
    <rect x="30" y="30" width="240" height="140" fill="url(#screenGradient)" rx="4"/>
    
    <!-- Screen content -->
    <rect x="50" y="50" width="200" height="8" fill="#ffffff" opacity="0.9" rx="4"/>
    <rect x="50" y="70" width="150" height="6" fill="#ffffff" opacity="0.7" rx="3"/>
    <rect x="50" y="85" width="180" height="6" fill="#ffffff" opacity="0.7" rx="3"/>
    
    <!-- Task cards -->
    <rect x="50" y="110" width="80" height="40" fill="#ffffff" opacity="0.9" rx="6"/>
    <rect x="140" y="110" width="80" height="40" fill="#FFE492" opacity="0.9" rx="6"/>
    
    <!-- Productivity icons -->
    <circle cx="70" cy="125" r="8" fill="#4f9cf9"/>
    <circle cx="160" cy="125" r="8" fill="#043873"/>
  </g>
  
  <!-- Productivity icons around laptop -->
  <g transform="translate(50, 200)">
    <!-- Checklist icon -->
    <rect x="0" y="0" width="40" height="50" fill="#ffffff" rx="6" opacity="0.9"/>
    <rect x="8" y="10" width="24" height="3" fill="#4f9cf9" rx="1"/>
    <rect x="8" y="18" width="20" height="3" fill="#4f9cf9" rx="1"/>
    <rect x="8" y="26" width="18" height="3" fill="#4f9cf9" rx="1"/>
    <circle cx="6" cy="11" r="2" fill="#28a745"/>
    <circle cx="6" cy="19" r="2" fill="#28a745"/>
  </g>
  
  <g transform="translate(510, 180)">
    <!-- Clock icon -->
    <circle cx="20" cy="20" r="18" fill="#ffffff" opacity="0.9"/>
    <circle cx="20" cy="20" r="15" fill="#4f9cf9" opacity="0.2"/>
    <line x1="20" y1="20" x2="20" y2="10" stroke="#043873" stroke-width="2" stroke-linecap="round"/>
    <line x1="20" y1="20" x2="26" y2="20" stroke="#043873" stroke-width="2" stroke-linecap="round"/>
  </g>
  
  <!-- Floating geometric shapes -->
  <polygon points="80,350 100,330 120,350 100,370" fill="#FFE492" opacity="0.4"/>
  <polygon points="480,120 500,100 520,120 500,140" fill="#4f9cf9" opacity="0.3"/>
  
  <!-- Success indicators -->
  <g transform="translate(400, 280)">
    <circle cx="15" cy="15" r="12" fill="#28a745" opacity="0.8"/>
    <path d="M10 15 L13 18 L20 11" stroke="#ffffff" stroke-width="2" fill="none" stroke-linecap="round"/>
  </g>
</svg>
